<?xml version="1.0" encoding="UTF-8" standalone="no"?>
<!-- Created with Inkscape (http://www.inkscape.org/) -->

<svg
   width="96"
   height="32"
   viewBox="0 0 96 32"
   version="1.1"
   id="svg1"
   xmlns="http://www.w3.org/2000/svg"
   xmlns:svg="http://www.w3.org/2000/svg">
  <defs
     id="defs1" />
  <g
     id="layer1">
    <rect
       style="fill:#626262;fill-opacity:1;stroke:#000000;stroke-width:0.999999;stroke-opacity:1"
       id="rect5"
       width="31"
       height="31.000002"
       x="0.5"
       y="0.5" />
    <circle
       style="fill:#909090;fill-opacity:1;stroke:#000000;stroke-opacity:1"
       id="path1"
       cx="16.060432"
       cy="27.613129"
       r="4.0195312" />
    <path
       id="path2"
       style="fill:#909090;fill-opacity:1;stroke:#000000;stroke-opacity:1"
       d="M 8.0058594,2.1347656 C 6.5652406,2.995468 5.7208117,5.2281997 6.2033547,6.8354779 6.597711,8.1490194 8.4367701,10.583843 9.5488281,9.2304688 10.598182,7.953406 13.901895,8.5966058 14.769914,10.13488 c 1.12495,1.993601 -2.742909,4.122484 -2.494795,6.398093 0.239078,2.192739 1.470359,5.516041 3.676049,5.502183 2.198217,-0.01381 3.629166,-4.002606 3.594401,-5.529143 C 23.684642,14.848425 24.882773,7.5003985 22.435275,3.9852173 19.664428,0.00563198 12.168679,-0.35232479 8.0058594,2.1347656 Z" />
    <rect
       style="fill:#626262;fill-opacity:1;stroke:#000000;stroke-width:0.999999;stroke-opacity:1"
       id="rect6"
       width="31"
       height="31.000002"
       x="32.5"
       y="0.5" />
    <circle
       style="fill:#909090;fill-opacity:1;stroke:#000000;stroke-opacity:1"
       id="path4"
       cx="48.581532"
       cy="7.2422123"
       r="5.9692464" />
    <path
       id="path5"
       style="fill:#909090;stroke:#000000;stroke-width:0.999999"
       d="m 55.501719,22.556004 c -1e-6,4.268973 -3.863801,8.265964 -6.666506,8.265965 -2.802706,0 -6.666506,-3.996992 -6.666507,-8.265965 0,-4.268975 2.984697,-7.729662 6.666507,-7.729662 3.68181,10e-7 6.666506,3.460688 6.666506,7.729662 z" />
    <rect
       style="fill:#626262;fill-opacity:1;stroke:#000000;stroke-width:0.999999;stroke-opacity:1"
       id="rect7"
       width="31"
       height="31.000002"
       x="64.5"
       y="0.5" />
    <path
       style="fill:#909090;fill-opacity:1;stroke:#000000;stroke-opacity:1"
       d="m 77.645221,8.4430147 c -7.102893,-4.562619 8.492713,-8.86947156 3.017156,0.021752"
       id="path9" />
    <path
       style="fill:#909090;fill-opacity:1;stroke:#000000;stroke-opacity:1"
       d="m 73.773591,17.3125 c 0,0 -4.786152,3.660539 -2.474878,7.763174 2.311275,4.102635 17.426777,6.914522 18.593137,3.368566 1.166361,-3.545956 -0.581495,-10.580269 -5.361826,-9.5625 -4.78033,1.01777 -7.018076,1.457414 -6.950061,-0.705576 0.06801,-2.16299 -3.806372,-0.863664 -3.806372,-0.863664 z"
       id="path10" />
    <path
       id="path7"
       style="fill:#909090;fill-opacity:1;stroke:#000000;stroke-opacity:1"
       d="m 88.099609,6.5976562 c -1.485585,0.00561 -5.648377,2.4797367 -6.732421,2.0058594 -3.131751,-1.664884 -5.701936,-1.3559519 -7.623047,1.234375 -14.054779,-8.1788124 -3.474433,18.7218594 -0.810547,6.4472654 1.73086,2.51297 5.563292,4.632597 10.912109,0.882815 2.941857,-2.062386 5.849609,-7.3222659 5.849609,-7.3222659 0.351113,-1.4349654 0.790624,-2.9051977 -1.595703,-3.2480489 z" />
  </g>
</svg>
